# xmcd
#
# Track frame offsets: 
#        150
#        58483
#        85728
#        134894
#        149570
#        178304
#
# Disc length: 3035 seconds
#
# Revision: 0
# Processed by: cddbd v1.5.2PL0 Copyright (c) Steve Scherf et al.
# Submitted via: ExactAudioCopy v1.0b3
#
DISCID=650bd906
DTITLE=Joy - Bootleg Recordings Vol. 1
DYEAR=2012
DGENRE=Psychedelic
TTITLE0=Save My Soul
TTITLE1=I Need You
TTITLE2=Driving Me Insane
TTITLE3=Help Me
TTITLE4=Evil
TTITLE5=Confusion
EXTD=
EXTT0=
EXTT1=
EXTT2=
EXTT3=
EXTT4=
EXTT5=
PLAYORDER=
